{"glyphs":{":":{"x_min":0,"x_max":247,"ha":247,"o":"m 207 153 l 207 0 l 54 0 l 54 153 z m 207 426 l 54 426 l 54 580 l 207 580 z"},"$":{"x_min":0,"x_max":788,"ha":788,"o":"m 740 509 l 587 509 l 587 567 l 464 567 l 464 433 l 595 433 q 625 433 652 422 q 678 410 698 390 q 717 370 728 344 q 740 317 740 287 l 740 145 q 740 115 728 89 q 717 63 698 43 q 678 23 652 12 q 625 0 595 0 l 464 0 l 464 -98 l 310 -98 l 310 0 l 179 0 q 149 0 122 12 q 96 23 76 43 q 57 63 46 89 q 34 115 34 145 l 34 211 l 187 211 l 187 153 l 310 153 l 310 280 l 179 280 q 149 280 122 292 q 96 303 76 322 q 57 342 46 368 q 34 395 34 425 l 34 575 q 34 605 46 632 q 57 658 76 678 q 96 697 122 708 q 149 720 179 720 l 310 720 l 310 818 l 464 818 l 464 720 l 595 720 q 625 720 652 708 q 678 697 698 678 q 717 658 728 632 q 740 605 740 575 z m 310 567 l 187 567 l 187 433 l 310 433 z m 464 153 l 587 153 l 587 280 l 464 280 z"},"?":{"x_min":0,"x_max":678,"ha":678,"o":"m 507 720 q 537 720 564 708 q 591 697 610 678 q 630 658 642 632 q 653 605 653 575 l 653 409 q 653 379 642 352 q 630 326 610 306 q 591 286 564 274 q 537 263 507 263 l 282 263 l 282 194 l 128 194 l 128 272 q 128 302 140 328 q 151 355 170 374 q 190 394 216 406 q 243 417 273 417 l 500 417 l 500 567 l 31 567 l 31 720 z m 128 0 l 128 153 l 282 153 l 282 0 z"},"<":{"x_min":0,"x_max":473,"ha":473,"o":"m 432 160 l 432 -17 l 5 231 l 5 359 l 432 607 l 432 431 l 198 296 z"},"'":{"x_min":0,"x_max":251,"ha":251,"o":"m 212 504 l 59 504 l 59 706 l 212 706 z"},"=":{"x_min":0,"x_max":638,"ha":638,"o":"m 585 129 l 59 129 l 59 282 l 585 282 z m 585 331 l 59 331 l 59 484 l 585 484 z"},"a":{"x_min":0,"x_max":694,"ha":694,"o":"m 495 580 q 525 580 552 568 q 578 557 598 537 q 617 517 628 491 q 640 465 640 435 l 640 0 l 197 0 q 167 0 140 12 q 114 23 94 43 q 75 63 64 89 q 52 115 52 145 l 52 367 l 487 367 l 487 427 l 52 427 l 52 580 z m 487 233 l 205 233 l 205 153 l 487 153 z"},"L":{"x_min":0,"x_max":779,"ha":779,"o":"m 57 721 l 212 721 l 212 156 l 777 156 l 777 0 l 57 0 z"},"3":{"x_min":0,"x_max":826,"ha":826,"o":"m 733 431 q 733 406 727 385 q 742 367 751 344 q 760 320 760 294 l 760 145 q 760 115 748 89 q 737 63 718 43 q 698 23 672 12 q 645 0 615 0 l 199 0 q 169 0 142 12 q 116 23 96 43 q 76 63 64 89 q 53 115 53 145 l 53 201 l 206 201 l 206 153 l 607 153 l 607 286 l 171 286 l 171 439 l 580 439 l 580 567 l 206 567 l 206 511 l 53 511 l 53 575 q 53 605 64 632 q 76 658 96 678 q 116 697 142 708 q 169 720 199 720 l 588 720 q 618 720 644 708 q 671 697 690 678 q 710 658 722 632 q 733 605 733 575 z"},";":{"x_min":0,"x_max":266,"ha":266,"o":"m 205 426 l 51 426 l 51 580 l 205 580 z m 205 142 l 205 16 q 205 -11 194 -36 q 182 -61 162 -80 q 141 -100 113 -114 q 85 -127 52 -133 l 52 142 z"},"J":{"x_min":0,"x_max":780,"ha":780,"o":"m 159 156 l 567 156 l 567 720 l 724 720 l 724 148 q 724 117 712 90 q 701 63 680 43 q 660 23 633 12 q 606 0 576 0 l 152 0 q 121 0 94 12 q 67 23 47 43 q 27 63 16 90 q 4 117 4 148 l 4 241 l 159 241 z"},"V":{"x_min":0,"x_max":1003,"ha":1003,"o":"m 819 720 l 998 720 l 581 0 l 452 0 l 35 720 l 215 720 l 517 197 z"},"\"":{"x_min":0,"x_max":396,"ha":396,"o":"m 188 505 l 36 505 l 36 706 l 188 706 z m 369 505 l 217 505 l 217 706 l 369 706 z"},"7":{"x_min":0,"x_max":660,"ha":660,"o":"m 456 721 q 486 721 512 710 q 539 698 558 678 q 578 659 590 632 q 601 606 601 576 l 601 0 l 448 0 l 448 568 l 3 568 l 3 721 z"},"S":{"x_min":0,"x_max":822,"ha":822,"o":"m 771 505 l 614 505 l 614 564 l 206 564 l 206 438 l 623 438 q 653 438 680 426 q 707 415 728 395 q 748 375 760 348 q 771 321 771 290 l 771 148 q 771 117 760 90 q 748 63 728 43 q 707 23 680 12 q 653 0 623 0 l 199 0 q 168 0 141 12 q 114 23 94 43 q 74 63 62 90 q 51 117 51 148 l 51 215 l 206 215 l 206 156 l 614 156 l 614 282 l 199 282 q 168 282 141 294 q 114 305 94 325 q 74 345 62 372 q 51 399 51 430 l 51 572 q 51 603 62 630 q 74 657 94 677 q 114 697 141 708 q 168 720 199 720 l 623 720 q 653 720 680 708 q 707 697 728 677 q 748 657 760 630 q 771 603 771 572 z"},"}":{"x_min":0,"x_max":289,"ha":289,"o":"m 51 153 l 109 153 l 109 330 l 154 368 l 109 406 l 109 567 l 51 567 l 51 720 l 116 720 q 146 720 172 708 q 199 697 219 678 q 239 658 250 632 q 262 605 262 575 l 262 457 l 302 433 l 302 305 l 262 280 l 262 145 q 262 115 250 89 q 239 63 219 43 q 199 23 172 12 q 146 0 116 0 l 51 0 z"},"Z":{"x_min":0,"x_max":821,"ha":821,"o":"m 51 720 l 771 720 l 771 561 l 289 156 l 771 156 l 771 0 l 51 0 l 51 159 l 533 564 l 51 564 z"},"x":{"x_min":0,"x_max":692,"ha":692,"o":"m 644 580 l 644 530 l 444 295 q 471 261 499 228 q 527 194 554 161 l 644 50 l 644 0 l 487 0 l 345 174 l 203 0 l 46 0 l 46 50 l 246 295 l 46 530 l 46 580 l 203 580 l 345 412 q 380 453 416 496 q 453 540 486 580 z"},")":{"x_min":0,"x_max":297,"ha":297,"o":"m 56 153 l 114 153 l 114 567 l 56 567 l 56 720 l 123 720 q 153 720 179 708 q 205 697 225 678 q 245 658 256 632 q 268 605 268 575 l 268 145 q 268 115 256 89 q 245 63 225 43 q 205 23 179 12 q 153 0 123 0 l 56 0 z"},"&":{"x_min":0,"x_max":938,"ha":938,"o":"m 874 140 l 874 -18 l 734 62 q 714 34 682 17 q 650 0 614 0 l 198 0 q 168 0 142 12 q 115 23 96 43 q 76 63 64 89 q 53 115 53 145 l 53 330 q 53 350 63 374 q 73 399 96 414 q 91 427 90 440 q 89 453 89 467 l 89 574 q 89 604 100 630 q 112 657 132 676 q 152 696 178 708 q 204 719 234 719 l 587 719 q 614 719 638 710 q 662 701 682 685 q 701 669 714 647 q 727 625 732 600 l 732 512 l 579 512 l 579 565 l 242 565 l 242 457 l 606 274 l 606 369 l 759 369 l 759 208 z m 432 205 q 378 232 320 262 q 261 292 206 319 l 206 153 l 536 153 q 510 167 484 179 q 458 191 432 205 z"},"_":{"x_min":0,"x_max":828,"ha":828,"o":"m 761 -155 l 54 -155 l 54 -2 l 761 -2 z"},"v":{"x_min":0,"x_max":790,"ha":790,"o":"m 791 580 l 471 0 l 340 0 l 21 580 l 197 580 l 406 195 l 615 580 z"},"O":{"x_min":0,"x_max":828,"ha":828,"o":"m 626 720 q 656 720 683 708 q 710 697 730 677 q 751 657 762 630 q 774 603 774 572 l 774 148 q 774 117 762 90 q 751 63 730 43 q 710 23 683 12 q 656 0 626 0 l 202 0 q 171 0 144 12 q 117 23 97 43 q 77 63 66 90 q 54 117 54 148 l 54 572 q 54 603 66 630 q 77 657 97 677 q 117 697 144 708 q 171 720 202 720 z m 209 156 l 617 156 l 617 564 l 209 564 z"},"(":{"x_min":0,"x_max":294,"ha":294,"o":"m 205 567 l 205 153 l 263 153 l 263 0 l 197 0 q 167 0 140 12 q 114 23 94 43 q 75 63 64 89 q 52 115 52 145 l 52 575 q 52 605 64 632 q 75 658 94 678 q 114 697 140 708 q 167 720 197 720 l 263 720 l 263 567 z"},"C":{"x_min":0,"x_max":822,"ha":822,"o":"m 211 564 l 211 156 l 774 156 l 774 0 l 204 0 q 173 0 146 12 q 119 23 99 43 q 79 63 68 90 q 56 117 56 148 l 56 572 q 56 603 68 630 q 79 657 99 677 q 119 697 146 708 q 173 720 204 720 l 774 720 l 774 564 z"},"W":{"x_min":0,"x_max":1179,"ha":1179,"o":"m 1136 720 l 874 0 l 755 0 l 585 463 l 521 287 q 495 217 468 143 q 440 69 416 0 l 297 0 l 35 720 l 200 720 l 357 291 l 382 358 q 414 446 448 539 q 482 632 514 720 l 657 720 l 815 291 l 840 358 q 872 446 906 539 q 940 632 972 720 z"},"A":{"x_min":0,"x_max":836,"ha":836,"o":"m 629 720 q 660 720 687 708 q 714 697 734 677 q 754 657 766 630 q 778 603 778 572 l 778 0 l 621 0 l 621 232 l 213 232 l 213 0 l 58 0 l 58 572 q 58 603 70 630 q 81 657 101 677 q 121 697 148 708 q 175 720 206 720 z m 621 388 l 621 564 l 213 564 l 213 388 z"},"f":{"x_min":0,"x_max":440,"ha":440,"o":"m 206 616 l 206 580 l 421 580 l 421 427 l 206 427 l 206 0 l 53 0 l 53 625 q 53 655 64 681 q 76 707 96 727 q 115 747 142 758 q 169 770 199 770 l 421 770 l 421 616 z"},"Q":{"x_min":0,"x_max":884,"ha":884,"o":"m 774 156 l 856 156 l 856 0 l 202 0 q 171 0 144 12 q 117 23 97 43 q 77 63 66 90 q 54 117 54 148 l 54 572 q 54 603 66 630 q 77 657 97 677 q 117 697 144 708 q 171 720 202 720 l 625 720 q 656 720 683 708 q 710 697 730 677 q 750 657 762 630 q 774 603 774 572 z m 209 156 l 617 156 l 617 564 l 209 564 z"},"w":{"x_min":0,"x_max":1053,"ha":1053,"o":"m 1019 580 l 801 0 l 685 0 l 528 346 l 378 0 l 263 0 l 35 580 l 197 580 l 322 279 l 365 379 q 386 428 410 480 q 433 532 453 580 l 601 580 l 741 275 q 770 350 800 428 q 830 507 857 580 z"},"-":{"x_min":0,"x_max":517,"ha":517,"o":"m 476 219 l 59 219 l 59 372 l 476 372 z"},"E":{"x_min":0,"x_max":766,"ha":766,"o":"m 723 564 l 215 564 l 215 438 l 624 438 l 624 282 l 215 282 l 215 156 l 723 156 l 723 0 l 58 0 l 58 720 l 723 720 z"},"s":{"x_min":0,"x_max":686,"ha":686,"o":"m 637 406 l 483 406 l 483 427 l 201 427 l 201 367 l 491 367 q 521 367 548 356 q 575 344 594 324 q 614 304 626 278 q 637 252 637 222 l 637 145 q 637 115 626 89 q 614 63 594 43 q 575 23 548 12 q 521 0 491 0 l 193 0 q 163 0 137 12 q 111 23 91 43 q 71 63 60 89 q 48 115 48 145 l 48 174 l 201 174 l 201 153 l 483 153 l 483 213 l 193 213 q 163 213 137 224 q 111 236 91 256 q 71 276 60 302 q 48 328 48 358 l 48 435 q 48 465 60 491 q 71 517 91 537 q 111 557 137 568 q 163 580 193 580 l 491 580 q 521 580 548 568 q 575 557 594 537 q 614 517 626 491 q 637 465 637 435 z"},">":{"x_min":0,"x_max":475,"ha":475,"o":"m 59 159 l 292 294 l 164 366 q 138 380 110 398 q 83 415 59 428 l 59 605 l 487 358 l 487 229 l 59 -19 z"},"l":{"x_min":0,"x_max":337,"ha":337,"o":"m 206 771 l 206 153 l 323 153 l 323 0 l 197 0 q 167 0 141 12 q 115 23 95 43 q 75 63 64 89 q 52 115 52 145 l 52 771 z"},"8":{"x_min":0,"x_max":834,"ha":834,"o":"m 764 434 q 764 417 760 399 q 755 381 747 365 q 764 334 764 297 l 764 145 q 764 115 752 89 q 741 63 721 43 q 701 23 674 12 q 648 0 618 0 l 203 0 q 173 0 146 12 q 120 23 100 43 q 80 63 68 89 q 57 115 57 145 l 57 297 q 57 314 62 332 q 66 349 74 365 q 66 381 62 398 q 57 416 57 434 l 57 575 q 57 605 68 632 q 80 658 100 678 q 120 697 146 708 q 173 720 203 720 l 618 720 q 645 720 670 711 q 694 702 714 686 q 733 670 746 648 q 759 626 764 601 z m 210 153 l 611 153 l 611 288 l 210 288 z m 210 432 l 611 432 l 611 566 l 210 566 z"},"\\":{"x_min":0,"x_max":520,"ha":520,"o":"m 60 720 l 521 154 l 521 0 l 466 0 l 5 566 l 5 720 z"},"e":{"x_min":0,"x_max":692,"ha":692,"o":"m 494 580 q 524 580 550 568 q 577 557 596 537 q 616 517 628 491 q 639 465 639 435 l 639 213 l 204 213 l 204 153 l 639 153 l 639 0 l 196 0 q 166 0 140 12 q 114 23 94 43 q 74 63 62 89 q 51 115 51 145 l 51 435 q 51 465 62 491 q 74 517 94 537 q 114 557 140 568 q 166 580 196 580 z m 486 347 l 486 427 l 204 427 l 204 347 z"},"b":{"x_min":0,"x_max":667,"ha":667,"o":"m 497 580 q 527 580 554 568 q 580 557 600 537 q 619 517 630 491 q 642 465 642 435 l 642 145 q 642 115 630 89 q 619 63 600 43 q 580 23 554 12 q 527 0 497 0 l 54 0 l 54 770 l 207 770 l 207 580 z m 207 153 l 489 153 l 489 427 l 207 427 z"},"%":{"x_min":0,"x_max":966,"ha":966,"o":"m 841 719 l 841 563 l 185 0 l 134 0 l 134 157 l 790 719 z m 265 712 q 325 712 363 674 q 401 637 401 577 l 401 505 q 401 475 391 450 q 381 425 363 407 q 345 389 320 379 q 295 369 265 369 l 184 369 q 154 369 129 379 q 104 389 86 407 q 68 425 58 450 q 48 475 48 505 l 48 577 q 48 637 86 674 q 124 712 184 712 z m 773 352 q 833 352 871 314 q 909 277 909 217 l 909 145 q 909 115 899 90 q 889 65 871 47 q 853 29 828 19 q 803 9 773 9 l 692 9 q 662 9 638 19 q 613 29 595 47 q 577 65 567 90 q 557 115 557 145 l 557 217 q 557 247 567 272 q 577 297 595 314 q 613 332 638 342 q 662 352 692 352 z m 682 134 l 784 134 l 784 227 l 682 227 z m 173 495 l 275 495 l 275 587 l 173 587 z"},"m":{"x_min":0,"x_max":978,"ha":978,"o":"m 752 580 q 782 580 808 568 q 835 557 854 537 q 874 517 886 491 q 897 465 897 435 l 897 0 l 745 0 l 745 427 l 553 427 l 553 0 l 399 0 l 399 427 l 207 427 l 207 0 l 54 0 l 54 580 z"},"#":{"x_min":0,"x_max":797,"ha":797,"o":"m 750 417 l 635 417 l 601 311 l 722 311 l 722 158 l 551 158 q 540 122 528 79 q 517 36 506 0 l 351 0 l 399 158 l 259 158 q 248 122 237 79 q 226 36 215 0 l 60 0 l 107 158 l 32 158 l 32 311 l 153 311 l 187 417 l 60 417 l 60 570 l 236 570 q 248 605 260 646 q 273 686 284 720 l 442 720 l 391 570 l 529 570 l 577 720 l 734 720 l 683 570 l 750 570 z m 445 311 l 479 417 l 343 417 l 309 311 z"},",":{"x_min":0,"x_max":243,"ha":243,"o":"m 207 142 l 207 16 q 207 -11 196 -36 q 184 -61 164 -80 q 143 -100 115 -114 q 87 -127 54 -133 l 54 142 z"},"n":{"x_min":0,"x_max":696,"ha":696,"o":"m 497 580 q 527 580 554 568 q 580 557 600 537 q 619 517 630 491 q 642 465 642 435 l 642 0 l 489 0 l 489 427 l 207 427 l 207 0 l 54 0 l 54 580 z"},"h":{"x_min":0,"x_max":668,"ha":668,"o":"m 497 580 q 527 580 553 568 q 579 557 599 537 q 619 517 630 491 q 642 465 642 435 l 642 0 l 489 0 l 489 427 l 207 427 l 207 0 l 54 0 l 54 770 l 207 770 l 207 580 z"},"z":{"x_min":0,"x_max":698,"ha":698,"o":"m 54 580 l 642 580 l 642 423 l 293 153 l 642 153 l 642 0 l 54 0 l 54 157 l 403 427 l 54 427 z"},"B":{"x_min":0,"x_max":832,"ha":832,"o":"m 751 437 q 751 409 744 391 q 759 372 769 348 q 779 323 779 297 l 779 148 q 779 117 767 90 q 755 63 735 43 q 715 23 688 12 q 661 0 630 0 l 59 0 l 59 720 l 603 720 q 633 720 660 708 q 687 697 708 677 q 728 657 740 630 q 751 603 751 572 z m 214 156 l 622 156 l 622 288 l 214 288 z m 214 444 l 594 444 l 594 564 l 214 564 z"},"K":{"x_min":0,"x_max":797,"ha":797,"o":"m 752 720 l 752 666 l 495 360 q 558 284 624 206 q 689 129 752 54 l 752 0 l 590 0 l 354 282 l 213 282 l 213 0 l 57 0 l 57 720 l 213 720 l 213 438 l 354 438 q 377 464 399 491 q 421 518 444 545 l 590 720 z"},"R":{"x_min":0,"x_max":825,"ha":825,"o":"m 775 385 q 775 355 763 328 q 751 301 731 280 q 711 260 684 248 q 657 237 626 237 l 619 237 q 657 192 697 145 q 737 98 775 53 l 775 0 l 615 0 l 416 237 l 210 236 q 213 236 213 230 l 212 230 q 210 230 210 231 l 210 0 l 55 0 l 55 719 l 626 719 q 657 719 684 708 q 711 696 731 676 q 751 655 763 628 q 775 601 775 571 z m 210 393 l 618 393 l 618 564 l 210 564 z"},"T":{"x_min":0,"x_max":759,"ha":759,"o":"m 740 720 l 740 564 l 458 564 l 458 0 l 302 0 l 302 564 l 20 564 l 20 720 z"},"P":{"x_min":0,"x_max":791,"ha":791,"o":"m 627 719 q 658 719 685 708 q 712 696 732 676 q 752 655 764 628 q 776 601 776 571 l 776 385 q 776 355 764 328 q 752 301 732 280 q 712 260 685 248 q 658 237 627 237 l 211 236 q 214 236 214 230 l 213 230 q 211 230 211 231 l 211 0 l 56 0 l 56 719 z m 211 393 l 619 393 l 619 564 l 211 564 z"},"|":{"x_min":0,"x_max":214,"ha":214,"o":"m 54 804 l 207 804 l 207 -99 l 54 -99 z"},"t":{"x_min":0,"x_max":451,"ha":451,"o":"m 206 427 l 206 153 l 421 153 l 421 0 l 199 0 q 169 0 142 12 q 115 23 96 43 q 76 63 64 89 q 53 115 53 145 l 53 752 l 206 752 l 206 580 l 421 580 l 421 427 z"},"M":{"x_min":0,"x_max":928,"ha":928,"o":"m 703 720 l 864 720 l 864 0 l 708 0 l 708 483 q 647 411 584 334 q 520 258 460 187 l 211 482 l 211 0 l 56 0 l 56 720 l 216 720 l 460 429 z"},"g":{"x_min":0,"x_max":683,"ha":683,"o":"m 630 -84 q 630 -114 618 -140 q 607 -167 588 -186 q 568 -206 542 -218 q 515 -229 485 -229 l 133 -229 l 133 -75 l 477 -75 l 477 0 l 187 0 q 157 0 130 12 q 104 23 84 43 q 64 63 52 89 q 41 115 41 145 l 41 435 q 41 465 52 491 q 64 517 84 537 q 104 557 130 568 q 157 580 187 580 l 485 580 q 515 580 542 568 q 568 557 588 537 q 607 517 618 491 q 630 465 630 435 z m 194 153 l 477 153 l 477 427 l 194 427 z"},"j":{"x_min":0,"x_max":239,"ha":239,"o":"m 211 770 l 211 616 l 58 616 l 58 770 z m 211 -63 q 211 -93 200 -120 q 188 -146 168 -166 q 148 -185 122 -196 q 95 -208 65 -208 l -187 -208 l -187 -54 l 58 -54 l 58 580 l 211 580 z"},"i":{"x_min":0,"x_max":229,"ha":229,"o":"m 52 580 l 205 580 l 205 0 l 52 0 z m 205 770 l 205 616 l 52 616 l 52 770 z"},"y":{"x_min":0,"x_max":685,"ha":685,"o":"m 631 -63 q 631 -93 620 -120 q 608 -146 588 -166 q 569 -185 542 -196 q 516 -208 486 -208 l 134 -208 l 134 -54 l 478 -54 l 478 0 l 188 0 q 158 0 132 12 q 105 23 85 43 q 65 63 54 89 q 42 115 42 145 l 42 578 l 195 578 l 195 153 l 478 153 l 478 578 l 631 578 z"},"@":{"x_min":0,"x_max":831,"ha":831,"o":"m 442 519 q 502 519 534 486 q 567 454 567 394 l 567 331 l 611 331 l 611 567 l 210 567 l 210 153 l 764 153 l 764 0 l 203 0 q 173 0 146 12 q 120 23 100 43 q 80 63 68 89 q 57 115 57 145 l 57 575 q 57 605 68 632 q 80 658 100 678 q 120 697 146 708 q 173 720 203 720 l 618 720 q 648 720 674 708 q 701 697 721 678 q 741 658 752 632 q 764 605 764 575 l 764 216 l 380 216 q 320 216 287 248 q 254 280 254 341 l 254 394 q 254 454 287 486 q 320 519 380 519 z m 461 331 l 461 413 l 360 413 l 360 331 z"},".":{"x_min":0,"x_max":233,"ha":233,"o":"m 207 0 l 54 0 l 54 153 l 207 153 z"},"p":{"x_min":0,"x_max":664,"ha":664,"o":"m 497 580 q 527 580 554 568 q 580 557 600 537 q 619 517 630 491 q 642 465 642 435 l 642 145 q 642 115 630 89 q 619 63 600 43 q 580 23 554 12 q 527 0 497 0 l 207 0 l 207 -230 l 54 -230 l 54 580 z m 207 153 l 489 153 l 489 427 l 207 427 z"},"X":{"x_min":0,"x_max":812,"ha":812,"o":"m 766 720 l 766 667 l 508 360 l 766 54 l 766 0 l 605 0 l 405 236 q 384 211 359 182 q 334 152 308 121 q 282 90 256 59 q 230 28 207 0 l 46 0 l 46 53 l 303 360 q 240 436 175 514 q 110 592 46 667 l 46 720 l 207 720 l 407 483 q 427 508 452 538 q 477 568 503 598 q 529 629 556 660 q 582 691 605 720 z"},"*":{"x_min":0,"x_max":516,"ha":516,"o":"m 492 479 l 382 444 l 451 351 l 328 261 l 257 354 l 191 261 l 66 351 l 135 444 l 25 479 l 72 627 l 181 590 l 181 706 l 335 706 l 335 590 q 340 591 346 594 q 353 596 364 600 q 376 603 395 610 q 414 616 445 627 z"},"Y":{"x_min":0,"x_max":806,"ha":806,"o":"m 840 720 l 506 268 l 506 0 l 350 0 l 350 269 l 219 445 q 195 476 168 512 q 142 549 116 586 q 89 622 64 656 q 38 691 17 720 l 202 720 l 428 436 q 483 505 541 578 q 599 651 653 720 z"},"c":{"x_min":0,"x_max":695,"ha":695,"o":"m 204 427 l 204 153 l 639 153 l 639 0 l 196 0 q 166 0 140 12 q 114 23 94 43 q 74 63 62 89 q 51 115 51 145 l 51 435 q 51 465 62 491 q 74 517 94 537 q 114 557 140 568 q 166 580 196 580 l 638 580 l 638 427 z"},"!":{"x_min":0,"x_max":220,"ha":220,"o":"m 58 0 l 58 153 l 211 153 l 211 0 z m 58 720 l 211 720 l 211 201 l 58 201 z"},"/":{"x_min":0,"x_max":521,"ha":521,"o":"m 467 720 l 522 720 l 522 566 l 61 0 l 6 0 l 6 155 z"},"[":{"x_min":0,"x_max":275,"ha":275,"o":"m 54 720 l 265 720 l 265 567 l 207 567 l 207 153 l 265 153 l 265 0 l 54 0 z"},"6":{"x_min":0,"x_max":820,"ha":820,"o":"m 210 567 l 210 442 l 618 442 q 648 442 674 430 q 701 419 721 400 q 741 380 752 354 q 764 327 764 297 l 764 145 q 764 115 752 89 q 741 63 721 43 q 701 23 674 12 q 648 0 618 0 l 203 0 q 173 0 146 12 q 120 23 100 43 q 80 63 68 89 q 57 115 57 145 l 57 575 q 57 605 68 632 q 80 658 100 678 q 120 697 146 708 q 173 720 203 720 l 655 720 l 655 567 z m 210 153 l 611 153 l 611 288 l 210 288 z"},"r":{"x_min":0,"x_max":526,"ha":526,"o":"m 518 580 l 518 427 l 205 427 l 205 0 l 52 0 l 52 435 q 52 465 64 491 q 75 517 95 537 q 115 557 142 568 q 168 580 198 580 z"},"2":{"x_min":0,"x_max":830,"ha":830,"o":"m 618 720 q 648 720 674 708 q 701 697 721 678 q 741 658 752 632 q 764 605 764 575 l 764 416 q 764 386 752 360 q 741 333 721 313 q 701 293 674 282 q 648 270 618 270 l 210 270 l 210 153 l 764 153 l 764 0 l 57 0 l 57 279 q 57 309 68 336 q 80 362 100 382 q 120 401 146 412 q 173 424 203 424 l 611 424 l 611 567 l 210 567 l 210 509 l 57 509 l 57 575 q 57 605 68 632 q 80 658 100 678 q 120 697 146 708 q 173 720 203 720 z"},"{":{"x_min":0,"x_max":289,"ha":289,"o":"m 216 153 l 274 153 l 274 0 l 209 0 q 179 0 152 12 q 125 23 106 43 q 86 63 74 89 q 63 115 63 145 l 63 280 l 47 290 l 48 290 q 43 292 36 296 q 28 301 23 303 l 23 434 l 63 456 l 63 575 q 63 605 74 632 q 86 658 106 678 q 125 697 152 708 q 179 720 209 720 l 274 720 l 274 567 l 216 567 l 216 406 l 171 368 l 194 348 l 194 349 l 216 331 z"},"9":{"x_min":0,"x_max":828,"ha":828,"o":"m 200 0 q 173 0 148 12 q 124 24 104 44 q 84 65 70 93 q 57 121 51 153 l 608 153 l 608 281 l 200 281 q 170 281 144 292 q 117 304 97 324 q 77 344 66 370 q 54 397 54 427 l 54 575 q 54 605 66 632 q 77 658 97 678 q 117 697 144 708 q 170 720 200 720 l 616 720 q 646 720 672 708 q 699 697 718 678 q 738 658 750 632 q 761 605 761 575 l 761 145 q 761 115 750 89 q 738 63 718 43 q 699 23 672 12 q 646 0 616 0 z m 608 435 l 608 567 l 208 567 l 208 435 z"}," ":{"x_min":0,"x_max":322,"ha":322,"o":""},"I":{"x_min":0,"x_max":220,"ha":220,"o":"m 57 720 l 213 720 l 213 0 l 57 0 z"},"H":{"x_min":0,"x_max":851,"ha":851,"o":"m 792 720 l 792 0 l 637 0 l 637 282 l 212 282 l 212 0 l 57 0 l 57 720 l 212 720 l 212 438 l 637 438 l 637 720 z"},"4":{"x_min":0,"x_max":730,"ha":730,"o":"m 686 333 l 686 179 l 590 179 l 590 0 l 437 0 l 437 179 l 6 179 l 6 316 l 453 720 l 590 720 l 590 333 z m 255 333 l 437 333 l 437 481 z"},"~":{"x_min":0,"x_max":404,"ha":404,"o":"m 303 325 q 320 325 342 332 q 365 339 399 361 l 399 235 q 376 225 351 218 q 326 210 300 210 q 273 210 250 220 q 227 229 205 240 q 183 252 160 262 q 138 271 113 271 q 101 271 80 265 q 59 259 24 232 l 24 364 q 47 374 72 380 q 96 387 119 387 q 145 387 168 379 q 190 371 212 360 q 233 350 256 340 q 278 329 303 325 z"},"D":{"x_min":0,"x_max":834,"ha":834,"o":"m 629 720 q 660 720 687 708 q 714 697 734 677 q 754 657 766 630 q 778 603 778 572 l 778 148 q 778 117 766 90 q 754 63 734 43 q 714 23 687 12 q 660 0 629 0 l 58 0 l 58 720 z m 213 156 l 621 156 l 621 564 l 213 564 z"},"0":{"x_min":0,"x_max":834,"ha":834,"o":"m 618 720 q 648 720 674 708 q 701 696 721 676 q 741 655 752 628 q 764 601 764 571 l 764 155 q 764 125 752 98 q 741 70 721 48 q 701 26 674 13 q 648 0 618 0 l 203 0 q 173 0 146 13 q 120 26 100 48 q 80 70 68 98 q 57 125 57 155 l 57 571 q 57 601 68 628 q 80 655 100 676 q 120 696 146 708 q 173 720 203 720 z m 611 163 l 611 431 l 292 163 z m 210 563 l 210 295 l 529 563 z"},"F":{"x_min":0,"x_max":723,"ha":723,"o":"m 723 720 l 723 564 l 215 564 l 215 438 l 624 438 l 624 282 l 215 282 l 215 0 l 58 0 l 58 720 z"},"`":{"x_min":0,"x_max":272,"ha":272,"o":"m 240 747 l 83 747 l 32 950 l 189 950 z"},"k":{"x_min":0,"x_max":646,"ha":646,"o":"m 636 580 l 636 528 l 420 290 l 636 52 l 636 0 l 482 0 l 285 213 l 207 213 l 207 0 l 54 0 l 54 770 l 207 770 l 207 367 l 285 367 l 482 580 z"},"u":{"x_min":0,"x_max":695,"ha":695,"o":"m 641 580 l 641 145 q 641 115 630 89 q 618 63 598 43 q 579 23 552 12 q 526 0 496 0 l 198 0 q 168 0 142 12 q 115 23 96 43 q 76 63 64 89 q 53 115 53 145 l 53 580 l 206 580 l 206 153 l 488 153 l 488 580 z"},"]":{"x_min":0,"x_max":276,"ha":276,"o":"m 51 720 l 262 720 l 262 0 l 51 0 l 51 153 l 108 153 l 108 567 l 51 567 z"},"U":{"x_min":0,"x_max":828,"ha":828,"o":"m 209 156 l 617 156 l 617 720 l 774 720 l 774 148 q 774 117 762 90 q 751 63 730 43 q 710 23 683 12 q 656 0 626 0 l 202 0 q 171 0 144 12 q 117 23 97 43 q 77 63 66 90 q 54 117 54 148 l 54 720 l 209 720 z"},"o":{"x_min":0,"x_max":692,"ha":692,"o":"m 494 580 q 524 580 550 568 q 577 557 596 537 q 616 517 628 491 q 639 465 639 435 l 639 145 q 639 115 628 89 q 616 63 596 43 q 577 23 550 12 q 524 0 494 0 l 196 0 q 166 0 140 12 q 114 23 94 43 q 74 63 62 89 q 51 115 51 145 l 51 435 q 51 465 62 491 q 74 517 94 537 q 114 557 140 568 q 166 580 196 580 z m 204 153 l 486 153 l 486 427 l 204 427 z"},"N":{"x_min":0,"x_max":832,"ha":832,"o":"m 619 720 l 776 720 l 776 0 l 616 0 l 211 482 l 211 0 l 56 0 l 56 720 l 216 720 l 619 240 z"},"+":{"x_min":0,"x_max":455,"ha":455,"o":"m 300 503 l 300 372 l 434 372 l 434 219 l 300 219 l 300 86 l 147 86 l 147 219 l 17 219 l 17 372 l 147 372 l 147 503 z"},"G":{"x_min":0,"x_max":830,"ha":830,"o":"m 776 504 l 619 504 l 619 564 l 211 564 l 211 156 l 619 156 l 619 264 l 463 264 l 463 420 l 776 420 l 776 148 q 776 117 764 90 q 752 63 732 43 q 712 23 685 12 q 658 0 627 0 l 204 0 q 173 0 146 12 q 119 23 99 43 q 79 63 68 90 q 56 117 56 148 l 56 572 q 56 603 68 630 q 79 657 99 677 q 119 697 146 708 q 173 720 204 720 l 627 720 q 658 720 685 708 q 712 697 732 677 q 752 657 764 630 q 776 603 776 572 z"},"q":{"x_min":0,"x_max":664,"ha":664,"o":"m 20 435 q 20 465 32 491 q 43 517 62 537 q 82 557 108 568 q 135 580 165 580 l 609 580 l 609 -230 l 456 -230 l 456 0 l 165 0 q 135 0 108 12 q 82 23 62 43 q 43 63 32 89 q 20 115 20 145 z m 174 153 l 456 153 l 456 427 l 174 427 z"},"d":{"x_min":0,"x_max":667,"ha":667,"o":"m 612 770 l 612 0 l 168 0 q 138 0 112 12 q 85 23 66 43 q 46 63 34 89 q 23 115 23 145 l 23 435 q 23 465 34 491 q 46 517 66 537 q 85 557 112 568 q 138 580 168 580 l 459 580 l 459 770 z m 177 153 l 459 153 l 459 427 l 177 427 z"},"1":{"x_min":0,"x_max":391,"ha":391,"o":"m 231 720 l 390 720 l 390 0 l 237 0 l 237 487 l 235 485 l 236 485 l 204 446 l 1 446 z"},"5":{"x_min":0,"x_max":830,"ha":830,"o":"m 210 567 l 210 442 l 618 442 q 648 442 674 430 q 701 419 721 400 q 741 380 752 354 q 764 327 764 297 l 764 145 q 764 115 752 89 q 741 63 721 43 q 701 23 674 12 q 648 0 618 0 l 203 0 q 173 0 146 12 q 120 23 100 43 q 80 63 68 89 q 57 115 57 145 l 57 201 l 210 201 l 210 153 l 611 153 l 611 288 l 57 288 l 57 720 l 764 720 l 764 567 z"}}}
